<svg xmlns="http://www.w3.org/2000/svg" width="64" height="32" viewBox="0 0 64 32">
<defs>
<style>
	.base { fill: #31708f; }
	.background { fill: #d9edf7; }
	.border { fill: #bce8f1; }
</style>
</defs>
	<g>
		<rect class="background" x="1.5" y="1.5" width="61" height="29" />
		<path class="border" d="M61,3V29H3V3H61m3-3H0V32H64V0h0Z" />
	</g>
	<g>
		<path class="base" d="M20.05566,20.02609V8.573h1.40625v4.10937a3.14358,3.14358,0,0,1,2.48438-1.14062c3.62544,0,2.86719,3.19973,2.86719,8.48438H25.40723c0-5.0986.55051-7.27344-1.75-7.27344-2.76274,0-2.19531,2.86959-2.19531,7.27344H20.05566Z" />
		<path class="base" d="M27.95605,20.02609l3.03125-4.3125-2.80469-3.98437h1.75781c0.94012,1.43614,1.50919,2.2828,1.85156,2.875,0.4453-.66417.59418-0.85989,2.03125-2.875h1.67969l-2.86719,3.90625,3.08594,4.39063H33.99512c-1.96118-2.96875-1.50968-2.28129-2.15625-3.27344l-2.17969,3.27344H27.95605Z" />
		<path class="base" d="M37.07715,23.2214L36.9209,21.90109c1.87229,0.50362,2.05033-.46977,2.57031-1.85937l-3.14844-8.3125H37.8584c1.94154,5.40294,2.01956,5.54716,2.32813,6.72656a68.05981,68.05981,0,0,1,2.35156-6.72656h1.40625C40.15225,21.86648,39.95149,24.20473,37.07715,23.2214Z" />
	</g>
</svg>
